<svg xmlns="http://www.w3.org/2000/svg" xmlns:xlink="http://www.w3.org/1999/xlink" width="500" zoomAndPan="magnify" viewBox="0 0 375 374.999991" height="500" preserveAspectRatio="xMidYMid meet" version="1.2"><defs><clipPath id="7d9b7bca40"><path d="M 34.214844 33.089844 L 262.648438 33.089844 L 262.648438 262.664062 L 34.214844 262.664062 Z M 34.214844 33.089844 "/></clipPath></defs><g id="8c735a4bfb"><g clip-rule="nonzero" clip-path="url(#7d9b7bca40)"><path style=" stroke:none;fill-rule:nonzero;fill:#000000;fill-opacity:1;" d="M 185.449219 33.269531 L 185.449219 36.445312 L 198.550781 36.445312 C 206.070312 36.445312 211.882812 38.152344 215.914062 41.640625 C 219.945312 45.128906 222.039062 50.710938 222.039062 58.617188 L 222.039062 213.652344 L 102.273438 33.269531 L 34.214844 33.269531 L 34.214844 36.445312 L 46.382812 36.445312 C 53.902344 36.445312 59.714844 38.152344 63.902344 41.484375 C 68.089844 44.820312 70.179688 50.167969 70.179688 57.6875 L 70.179688 65.050781 L 73.359375 65.050781 L 73.359375 52.183594 L 213.046875 262.488281 L 225.214844 262.488281 L 225.214844 58.925781 C 225.214844 50.789062 227.308594 45.050781 231.496094 41.640625 C 235.679688 38.230469 241.492188 36.445312 249.011719 36.445312 L 262.113281 36.445312 L 262.113281 33.269531 Z M 79.484375 254.117188 C 75.453125 250.703125 73.359375 244.96875 73.359375 236.828125 L 70.179688 236.828125 C 70.179688 244.96875 68.089844 250.703125 63.902344 254.117188 C 59.714844 257.527344 53.902344 259.230469 46.382812 259.230469 L 34.214844 259.230469 L 34.214844 262.488281 L 111.265625 262.488281 L 111.265625 259.230469 L 96.847656 259.230469 C 89.328125 259.230469 83.515625 257.527344 79.484375 254.117188 Z M 79.484375 254.117188 "/></g><g style="fill:#000000;fill-opacity:1;"><g transform="translate(76.133802, 227.713963)"><path style="stroke:none" d="M 0.125 2 C 0.125 2.238281 0.0351562 2.425781 -0.140625 2.5625 C -0.316406 2.695312 -0.53125 2.738281 -0.78125 2.6875 C -0.945312 2.65625 -1.238281 2.507812 -1.65625 2.25 C -2.070312 1.988281 -2.578125 1.640625 -3.171875 1.203125 C -3.765625 0.765625 -4.40625 0.265625 -5.09375 -0.296875 C -5.78125 -0.859375 -6.476562 -1.46875 -7.1875 -2.125 C -7.90625 -2.78125 -8.59375 -3.457031 -9.25 -4.15625 C -9.914062 -4.851562 -10.507812 -5.546875 -11.03125 -6.234375 C -11.101562 -6.359375 -11.140625 -6.476562 -11.140625 -6.59375 C -11.140625 -6.75 -11.082031 -6.878906 -10.96875 -6.984375 C -10.863281 -7.097656 -10.734375 -7.15625 -10.578125 -7.15625 C -10.390625 -7.15625 -10.238281 -7.082031 -10.125 -6.9375 C -9.59375 -6.21875 -8.988281 -5.503906 -8.3125 -4.796875 C -7.644531 -4.085938 -6.957031 -3.410156 -6.25 -2.765625 C -5.550781 -2.128906 -4.882812 -1.550781 -4.25 -1.03125 C -3.613281 -0.507812 -3.066406 -0.0820312 -2.609375 0.25 C -2.523438 0.3125 -2.460938 0.328125 -2.421875 0.296875 C -2.378906 0.265625 -2.394531 0.191406 -2.46875 0.078125 C -3.800781 -1.773438 -4.890625 -3.375 -5.734375 -4.71875 C -6.578125 -6.070312 -7.195312 -7.21875 -7.59375 -8.15625 C -8 -9.09375 -8.203125 -9.851562 -8.203125 -10.4375 C -8.203125 -10.84375 -8.097656 -11.164062 -7.890625 -11.40625 C -7.691406 -11.644531 -7.410156 -11.765625 -7.046875 -11.765625 C -6.722656 -11.765625 -6.289062 -11.703125 -5.75 -11.578125 C -5.21875 -11.460938 -4.691406 -11.34375 -4.171875 -11.21875 C -3.710938 -11.113281 -3.296875 -11.019531 -2.921875 -10.9375 C -2.554688 -10.851562 -2.296875 -10.8125 -2.140625 -10.8125 C -1.992188 -10.8125 -1.890625 -10.851562 -1.828125 -10.9375 C -1.765625 -11.03125 -1.734375 -11.191406 -1.734375 -11.421875 C -1.734375 -12.023438 -1.835938 -12.726562 -2.046875 -13.53125 C -2.265625 -14.34375 -2.570312 -15.226562 -2.96875 -16.1875 C -3.363281 -17.144531 -3.84375 -18.144531 -4.40625 -19.1875 C -4.96875 -20.226562 -5.59375 -21.273438 -6.28125 -22.328125 C -6.351562 -22.421875 -6.390625 -22.523438 -6.390625 -22.640625 C -6.390625 -22.796875 -6.332031 -22.925781 -6.21875 -23.03125 C -6.101562 -23.144531 -5.96875 -23.203125 -5.8125 -23.203125 C -5.59375 -23.203125 -5.4375 -23.113281 -5.34375 -22.9375 C -4.625 -21.832031 -3.96875 -20.734375 -3.375 -19.640625 C -2.789062 -18.554688 -2.289062 -17.507812 -1.875 -16.5 C -1.457031 -15.5 -1.140625 -14.566406 -0.921875 -13.703125 C -0.703125 -12.835938 -0.59375 -12.078125 -0.59375 -11.421875 C -0.59375 -10.878906 -0.726562 -10.453125 -1 -10.140625 C -1.28125 -9.835938 -1.660156 -9.6875 -2.140625 -9.6875 C -2.359375 -9.6875 -2.675781 -9.734375 -3.09375 -9.828125 C -3.519531 -9.921875 -3.96875 -10.019531 -4.4375 -10.125 C -4.957031 -10.25 -5.453125 -10.363281 -5.921875 -10.46875 C -6.390625 -10.570312 -6.691406 -10.625 -6.828125 -10.625 C -6.992188 -10.625 -7.078125 -10.539062 -7.078125 -10.375 C -7.078125 -10.019531 -6.972656 -9.578125 -6.765625 -9.046875 C -6.566406 -8.523438 -6.296875 -7.953125 -5.953125 -7.328125 C -5.609375 -6.703125 -5.222656 -6.050781 -4.796875 -5.375 C -4.378906 -4.695312 -3.941406 -4.023438 -3.484375 -3.359375 C -3.035156 -2.691406 -2.597656 -2.054688 -2.171875 -1.453125 C -1.753906 -0.859375 -1.375 -0.332031 -1.03125 0.125 C -0.976562 0.195312 -0.925781 0.265625 -0.875 0.328125 C -0.832031 0.398438 -0.785156 0.46875 -0.734375 0.53125 C -0.398438 0.976562 -0.171875 1.304688 -0.046875 1.515625 C 0.0664062 1.722656 0.125 1.882812 0.125 2 Z M 0.125 2 "/></g></g><g style="fill:#000000;fill-opacity:1;"><g transform="translate(76.133802, 206.699391)"><path style="stroke:none" d="M -6.390625 -22.390625 C -6.390625 -22.535156 -6.328125 -22.664062 -6.203125 -22.78125 C -6.085938 -22.894531 -5.957031 -22.953125 -5.8125 -22.953125 C -5.613281 -22.953125 -5.457031 -22.867188 -5.34375 -22.703125 C -4.78125 -21.898438 -4.222656 -21.015625 -3.671875 -20.046875 C -3.128906 -19.085938 -2.625 -18.101562 -2.15625 -17.09375 C -1.695312 -16.09375 -1.285156 -15.113281 -0.921875 -14.15625 C -0.566406 -13.195312 -0.289062 -12.320312 -0.09375 -11.53125 C 0.101562 -10.75 0.203125 -10.101562 0.203125 -9.59375 C 0.203125 -8.707031 0.0078125 -8.03125 -0.375 -7.5625 C -0.757812 -7.101562 -1.320312 -6.875 -2.0625 -6.875 C -2.65625 -6.875 -3.257812 -7.007812 -3.875 -7.28125 C -4.5 -7.5625 -5.09375 -7.878906 -5.65625 -8.234375 C -5.789062 -8.316406 -5.878906 -8.332031 -5.921875 -8.28125 C -5.960938 -8.238281 -5.9375 -8.15625 -5.84375 -8.03125 C -5.769531 -7.925781 -5.691406 -7.820312 -5.609375 -7.71875 C -5.535156 -7.613281 -5.457031 -7.503906 -5.375 -7.390625 C -4.945312 -6.796875 -4.484375 -6.148438 -3.984375 -5.453125 C -3.484375 -4.753906 -2.992188 -4.046875 -2.515625 -3.328125 C -2.046875 -2.609375 -1.613281 -1.90625 -1.21875 -1.21875 C -0.820312 -0.539062 -0.503906 0.0859375 -0.265625 0.671875 C -0.0351562 1.253906 0.078125 1.75 0.078125 2.15625 C 0.078125 2.582031 -0.0351562 2.925781 -0.265625 3.1875 C -0.492188 3.445312 -0.800781 3.578125 -1.1875 3.578125 C -1.613281 3.578125 -2.066406 3.414062 -2.546875 3.09375 C -3.023438 2.769531 -3.507812 2.335938 -4 1.796875 C -4.5 1.253906 -4.972656 0.65625 -5.421875 0 C -5.867188 -0.65625 -6.269531 -1.320312 -6.625 -2 C -6.988281 -2.675781 -7.269531 -3.316406 -7.46875 -3.921875 C -7.675781 -4.523438 -7.78125 -5.03125 -7.78125 -5.4375 C -7.78125 -5.9375 -7.703125 -6.34375 -7.546875 -6.65625 C -7.398438 -6.96875 -7.15625 -7.226562 -6.8125 -7.4375 C -7.238281 -8.03125 -7.566406 -8.5 -7.796875 -8.84375 C -8.035156 -9.1875 -8.195312 -9.453125 -8.28125 -9.640625 C -8.375 -9.828125 -8.421875 -9.976562 -8.421875 -10.09375 C -8.421875 -10.28125 -8.359375 -10.4375 -8.234375 -10.5625 C -8.109375 -10.695312 -7.953125 -10.765625 -7.765625 -10.765625 C -7.585938 -10.765625 -7.375 -10.691406 -7.125 -10.546875 C -6.882812 -10.398438 -6.578125 -10.203125 -6.203125 -9.953125 C -5.804688 -9.679688 -5.367188 -9.390625 -4.890625 -9.078125 C -4.421875 -8.773438 -3.941406 -8.519531 -3.453125 -8.3125 C -2.960938 -8.101562 -2.5 -8 -2.0625 -8 C -1.664062 -8 -1.375 -8.117188 -1.1875 -8.359375 C -1.007812 -8.609375 -0.921875 -9.019531 -0.921875 -9.59375 C -0.921875 -10.03125 -1.007812 -10.609375 -1.1875 -11.328125 C -1.375 -12.054688 -1.628906 -12.867188 -1.953125 -13.765625 C -2.273438 -14.671875 -2.65625 -15.609375 -3.09375 -16.578125 C -3.539062 -17.546875 -4.03125 -18.5 -4.5625 -19.4375 C -5.101562 -20.382812 -5.671875 -21.257812 -6.265625 -22.0625 C -6.347656 -22.144531 -6.390625 -22.253906 -6.390625 -22.390625 Z M -6.140625 -6.515625 C -6.359375 -6.390625 -6.5 -6.257812 -6.5625 -6.125 C -6.625 -5.988281 -6.65625 -5.757812 -6.65625 -5.4375 C -6.65625 -5.050781 -6.554688 -4.585938 -6.359375 -4.046875 C -6.160156 -3.503906 -5.898438 -2.9375 -5.578125 -2.34375 C -5.265625 -1.757812 -4.914062 -1.179688 -4.53125 -0.609375 C -4.144531 -0.046875 -3.75 0.460938 -3.34375 0.921875 C -2.945312 1.390625 -2.570312 1.757812 -2.21875 2.03125 C -1.863281 2.3125 -1.566406 2.453125 -1.328125 2.453125 C -1.140625 2.453125 -1.046875 2.351562 -1.046875 2.15625 C -1.046875 1.65625 -1.269531 0.976562 -1.71875 0.125 C -2.175781 -0.726562 -2.789062 -1.71875 -3.5625 -2.84375 C -4.332031 -3.976562 -5.191406 -5.203125 -6.140625 -6.515625 Z M -6.140625 -6.515625 "/></g></g><g style="fill:#000000;fill-opacity:1;"><g transform="translate(76.133802, 185.920587)"><path style="stroke:none" d="M -6.390625 -18.875 C -6.390625 -19.039062 -6.332031 -19.175781 -6.21875 -19.28125 C -6.101562 -19.394531 -5.96875 -19.453125 -5.8125 -19.453125 C -5.613281 -19.453125 -5.453125 -19.363281 -5.328125 -19.1875 C -4.921875 -18.539062 -4.492188 -17.796875 -4.046875 -16.953125 C -3.597656 -16.109375 -3.175781 -15.207031 -2.78125 -14.25 C -2.394531 -13.300781 -2.082031 -12.328125 -1.84375 -11.328125 C -1.601562 -10.335938 -1.484375 -9.375 -1.484375 -8.4375 C -1.484375 -7.414062 -1.726562 -6.59375 -2.21875 -5.96875 C -1.375 -5.3125 -0.523438 -4.601562 0.328125 -3.84375 C 1.179688 -3.09375 1.992188 -2.328125 2.765625 -1.546875 C 3.535156 -0.773438 4.222656 -0.0351562 4.828125 0.671875 C 5.429688 1.390625 5.910156 2.035156 6.265625 2.609375 C 6.617188 3.179688 6.796875 3.644531 6.796875 4 C 6.796875 4.488281 6.675781 4.867188 6.4375 5.140625 C 6.195312 5.410156 5.859375 5.546875 5.421875 5.546875 C 5.035156 5.546875 4.5625 5.441406 4 5.234375 C 3.445312 5.035156 2.835938 4.765625 2.171875 4.421875 C 1.503906 4.078125 0.816406 3.6875 0.109375 3.25 C -0.585938 2.820312 -1.28125 2.375 -1.96875 1.90625 C -2.664062 1.4375 -3.320312 0.976562 -3.9375 0.53125 C -4.550781 0.09375 -5.085938 -0.304688 -5.546875 -0.671875 C -6.015625 -1.046875 -6.382812 -1.351562 -6.65625 -1.59375 C -6.78125 -1.707031 -6.84375 -1.847656 -6.84375 -2.015625 C -6.84375 -2.171875 -6.785156 -2.300781 -6.671875 -2.40625 C -6.566406 -2.519531 -6.429688 -2.578125 -6.265625 -2.578125 C -6.128906 -2.578125 -6.003906 -2.53125 -5.890625 -2.4375 C -5.640625 -2.207031 -5.289062 -1.910156 -4.84375 -1.546875 C -4.394531 -1.191406 -3.878906 -0.800781 -3.296875 -0.375 C -2.710938 0.0507812 -2.09375 0.488281 -1.4375 0.9375 C -0.78125 1.382812 -0.117188 1.8125 0.546875 2.21875 C 1.210938 2.632812 1.847656 3.007812 2.453125 3.34375 C 3.066406 3.675781 3.625 3.9375 4.125 4.125 C 4.632812 4.320312 5.054688 4.421875 5.390625 4.421875 C 5.492188 4.421875 5.5625 4.390625 5.59375 4.328125 C 5.632812 4.273438 5.65625 4.222656 5.65625 4.171875 C 5.65625 3.890625 5.492188 3.5 5.171875 3 C 4.859375 2.507812 4.421875 1.9375 3.859375 1.28125 C 3.296875 0.625 2.640625 -0.0664062 1.890625 -0.796875 C 1.148438 -1.535156 0.351562 -2.285156 -0.5 -3.046875 C -1.351562 -3.804688 -2.226562 -4.535156 -3.125 -5.234375 C -3.53125 -5.046875 -3.984375 -4.953125 -4.484375 -4.953125 C -4.984375 -4.953125 -5.488281 -5.046875 -6 -5.234375 C -6.519531 -5.421875 -6.992188 -5.671875 -7.421875 -5.984375 C -7.847656 -6.296875 -8.1875 -6.632812 -8.4375 -7 C -8.695312 -7.375 -8.828125 -7.75 -8.828125 -8.125 C -8.828125 -8.425781 -8.734375 -8.675781 -8.546875 -8.875 C -8.359375 -9.082031 -8.117188 -9.1875 -7.828125 -9.1875 C -7.390625 -9.1875 -6.765625 -8.96875 -5.953125 -8.53125 C -5.148438 -8.101562 -4.203125 -7.484375 -3.109375 -6.671875 C -2.773438 -7.085938 -2.609375 -7.675781 -2.609375 -8.4375 C -2.609375 -9.3125 -2.722656 -10.210938 -2.953125 -11.140625 C -3.179688 -12.066406 -3.476562 -12.976562 -3.84375 -13.875 C -4.21875 -14.78125 -4.617188 -15.632812 -5.046875 -16.4375 C -5.472656 -17.238281 -5.882812 -17.945312 -6.28125 -18.5625 C -6.351562 -18.65625 -6.390625 -18.757812 -6.390625 -18.875 Z M -7.296875 -7.953125 C -7.472656 -8.015625 -7.59375 -8.03125 -7.65625 -8 C -7.726562 -7.976562 -7.695312 -7.863281 -7.5625 -7.65625 C -7.40625 -7.414062 -7.148438 -7.171875 -6.796875 -6.921875 C -6.453125 -6.679688 -6.070312 -6.476562 -5.65625 -6.3125 C -5.25 -6.15625 -4.859375 -6.078125 -4.484375 -6.078125 C -4.441406 -6.078125 -4.398438 -6.078125 -4.359375 -6.078125 C -4.328125 -6.078125 -4.289062 -6.082031 -4.25 -6.09375 C -5.582031 -7.070312 -6.597656 -7.691406 -7.296875 -7.953125 Z M -7.296875 -7.953125 "/></g></g><g style="fill:#000000;fill-opacity:1;"><g transform="translate(76.133802, 168.662539)"><path style="stroke:none" d="M -6.296875 -21.296875 C -6.296875 -21.441406 -6.238281 -21.570312 -6.125 -21.6875 C -6.007812 -21.8125 -5.878906 -21.875 -5.734375 -21.875 C -5.535156 -21.875 -5.390625 -21.800781 -5.296875 -21.65625 C -4.785156 -20.875 -4.171875 -19.941406 -3.453125 -18.859375 C -2.734375 -17.785156 -1.941406 -16.582031 -1.078125 -15.25 C -0.222656 -13.925781 0.675781 -12.503906 1.625 -10.984375 C 2.570312 -9.460938 3.539062 -7.875 4.53125 -6.21875 C 5.144531 -5.757812 5.765625 -5.273438 6.390625 -4.765625 C 7.015625 -4.253906 7.617188 -3.722656 8.203125 -3.171875 C 9.648438 -1.859375 11.097656 -0.476562 12.546875 0.96875 C 14.003906 2.414062 15.421875 3.894531 16.796875 5.40625 C 18.179688 6.914062 19.492188 8.414062 20.734375 9.90625 C 21.984375 11.40625 23.125 12.859375 24.15625 14.265625 C 25.1875 15.671875 26.082031 16.992188 26.84375 18.234375 C 27.601562 19.484375 28.191406 20.609375 28.609375 21.609375 C 29.023438 22.617188 29.234375 23.46875 29.234375 24.15625 C 29.234375 24.71875 29.070312 25.171875 28.75 25.515625 C 28.4375 25.859375 28.019531 26.03125 27.5 26.03125 C 26.675781 26.03125 25.734375 25.640625 24.671875 24.859375 C 23.617188 24.085938 22.40625 22.894531 21.03125 21.28125 C 19.664062 19.664062 18.113281 17.597656 16.375 15.078125 C 14.644531 12.554688 12.707031 9.546875 10.5625 6.046875 C 9.4375 4.210938 8.316406 2.363281 7.203125 0.5 C 6.085938 -1.363281 5.003906 -3.191406 3.953125 -4.984375 L 3.640625 -5.46875 C 3.046875 -5.914062 2.363281 -6.398438 1.59375 -6.921875 C 0.832031 -7.453125 0.0390625 -7.976562 -0.78125 -8.5 C -1.601562 -9.019531 -2.40625 -9.5 -3.1875 -9.9375 C -3.976562 -10.382812 -4.695312 -10.765625 -5.34375 -11.078125 C -5.988281 -11.390625 -6.519531 -11.597656 -6.9375 -11.703125 C -7.050781 -11.722656 -7.113281 -11.703125 -7.125 -11.640625 C -7.132812 -11.578125 -7.117188 -11.503906 -7.078125 -11.421875 C -6.972656 -11.234375 -6.726562 -10.890625 -6.34375 -10.390625 C -5.96875 -9.890625 -5.410156 -9.148438 -4.671875 -8.171875 C -4.222656 -7.566406 -3.753906 -6.9375 -3.265625 -6.28125 C -2.773438 -5.625 -2.300781 -4.960938 -1.84375 -4.296875 C -1.382812 -3.640625 -0.972656 -3.003906 -0.609375 -2.390625 C -0.242188 -1.773438 0.0390625 -1.207031 0.25 -0.6875 C 0.46875 -0.164062 0.578125 0.273438 0.578125 0.640625 C 0.578125 1.078125 0.457031 1.425781 0.21875 1.6875 C -0.0195312 1.945312 -0.332031 2.078125 -0.71875 2.078125 C -0.976562 2.078125 -1.3125 1.984375 -1.71875 1.796875 C -2.132812 1.617188 -2.585938 1.367188 -3.078125 1.046875 C -3.578125 0.734375 -4.082031 0.382812 -4.59375 0 C -5.113281 -0.382812 -5.617188 -0.785156 -6.109375 -1.203125 C -6.609375 -1.628906 -7.0625 -2.039062 -7.46875 -2.4375 C -7.875 -2.832031 -8.210938 -3.1875 -8.484375 -3.5 C -8.566406 -3.601562 -8.609375 -3.726562 -8.609375 -3.875 C -8.609375 -4.019531 -8.550781 -4.148438 -8.4375 -4.265625 C -8.320312 -4.378906 -8.191406 -4.4375 -8.046875 -4.4375 C -7.890625 -4.4375 -7.75 -4.375 -7.625 -4.25 C -7.28125 -3.820312 -6.851562 -3.375 -6.34375 -2.90625 C -5.832031 -2.4375 -5.296875 -1.972656 -4.734375 -1.515625 C -4.179688 -1.066406 -3.640625 -0.65625 -3.109375 -0.28125 C -2.578125 0.0820312 -2.109375 0.375 -1.703125 0.59375 C -1.296875 0.820312 -1 0.9375 -0.8125 0.9375 C -0.632812 0.9375 -0.546875 0.835938 -0.546875 0.640625 C -0.546875 0.347656 -0.644531 -0.0195312 -0.84375 -0.46875 C -1.039062 -0.914062 -1.3125 -1.421875 -1.65625 -1.984375 C -2 -2.546875 -2.382812 -3.132812 -2.8125 -3.75 C -3.25 -4.375 -3.707031 -5.003906 -4.1875 -5.640625 C -4.664062 -6.273438 -5.128906 -6.890625 -5.578125 -7.484375 C -6.160156 -8.242188 -6.632812 -8.878906 -7 -9.390625 C -7.375 -9.898438 -7.660156 -10.316406 -7.859375 -10.640625 C -8.066406 -10.960938 -8.210938 -11.222656 -8.296875 -11.421875 C -8.378906 -11.617188 -8.421875 -11.785156 -8.421875 -11.921875 C -8.421875 -12.222656 -8.320312 -12.457031 -8.125 -12.625 C -7.9375 -12.789062 -7.675781 -12.875 -7.34375 -12.875 C -7.0625 -12.875 -6.613281 -12.757812 -6 -12.53125 C -5.394531 -12.300781 -4.664062 -11.96875 -3.8125 -11.53125 C -2.957031 -11.09375 -2.015625 -10.570312 -0.984375 -9.96875 C 0.0351562 -9.363281 1.097656 -8.675781 2.203125 -7.90625 C 0.546875 -10.71875 -0.976562 -13.195312 -2.375 -15.34375 C -3.78125 -17.488281 -5.046875 -19.359375 -6.171875 -20.953125 C -6.253906 -21.066406 -6.296875 -21.179688 -6.296875 -21.296875 Z M 7.453125 -2.359375 C 7.242188 -2.546875 7.03125 -2.734375 6.8125 -2.921875 C 6.59375 -3.109375 6.375 -3.289062 6.15625 -3.46875 C 7.039062 -1.988281 7.929688 -0.5 8.828125 1 C 9.722656 2.5 10.628906 3.984375 11.546875 5.453125 C 15.578125 12.035156 18.90625 16.921875 21.53125 20.109375 C 24.15625 23.304688 26.144531 24.90625 27.5 24.90625 C 27.90625 24.90625 28.109375 24.65625 28.109375 24.15625 C 28.109375 23.570312 27.921875 22.828125 27.546875 21.921875 C 27.171875 21.023438 26.628906 20.003906 25.921875 18.859375 C 25.222656 17.710938 24.382812 16.46875 23.40625 15.125 C 22.425781 13.789062 21.335938 12.394531 20.140625 10.9375 C 18.941406 9.476562 17.660156 8 16.296875 6.5 C 14.929688 5 13.503906 3.5 12.015625 2 C 10.523438 0.507812 9.003906 -0.941406 7.453125 -2.359375 Z M 7.453125 -2.359375 "/></g></g><g style="fill:#000000;fill-opacity:1;"><g transform="translate(76.133802, 148.858227)"><path style="stroke:none" d="M -6.390625 -22.390625 C -6.390625 -22.535156 -6.328125 -22.664062 -6.203125 -22.78125 C -6.085938 -22.894531 -5.957031 -22.953125 -5.8125 -22.953125 C -5.613281 -22.953125 -5.457031 -22.867188 -5.34375 -22.703125 C -4.78125 -21.898438 -4.222656 -21.015625 -3.671875 -20.046875 C -3.128906 -19.085938 -2.625 -18.101562 -2.15625 -17.09375 C -1.695312 -16.09375 -1.285156 -15.113281 -0.921875 -14.15625 C -0.566406 -13.195312 -0.289062 -12.320312 -0.09375 -11.53125 C 0.101562 -10.75 0.203125 -10.101562 0.203125 -9.59375 C 0.203125 -8.707031 0.0078125 -8.03125 -0.375 -7.5625 C -0.757812 -7.101562 -1.320312 -6.875 -2.0625 -6.875 C -2.65625 -6.875 -3.257812 -7.007812 -3.875 -7.28125 C -4.5 -7.5625 -5.09375 -7.878906 -5.65625 -8.234375 C -5.789062 -8.316406 -5.878906 -8.332031 -5.921875 -8.28125 C -5.960938 -8.238281 -5.9375 -8.15625 -5.84375 -8.03125 C -5.769531 -7.925781 -5.691406 -7.820312 -5.609375 -7.71875 C -5.535156 -7.613281 -5.457031 -7.503906 -5.375 -7.390625 C -4.945312 -6.796875 -4.484375 -6.148438 -3.984375 -5.453125 C -3.484375 -4.753906 -2.992188 -4.046875 -2.515625 -3.328125 C -2.046875 -2.609375 -1.613281 -1.90625 -1.21875 -1.21875 C -0.820312 -0.539062 -0.503906 0.0859375 -0.265625 0.671875 C -0.0351562 1.253906 0.078125 1.75 0.078125 2.15625 C 0.078125 2.582031 -0.0351562 2.925781 -0.265625 3.1875 C -0.492188 3.445312 -0.800781 3.578125 -1.1875 3.578125 C -1.613281 3.578125 -2.066406 3.414062 -2.546875 3.09375 C -3.023438 2.769531 -3.507812 2.335938 -4 1.796875 C -4.5 1.253906 -4.972656 0.65625 -5.421875 0 C -5.867188 -0.65625 -6.269531 -1.320312 -6.625 -2 C -6.988281 -2.675781 -7.269531 -3.316406 -7.46875 -3.921875 C -7.675781 -4.523438 -7.78125 -5.03125 -7.78125 -5.4375 C -7.78125 -5.9375 -7.703125 -6.34375 -7.546875 -6.65625 C -7.398438 -6.96875 -7.15625 -7.226562 -6.8125 -7.4375 C -7.238281 -8.03125 -7.566406 -8.5 -7.796875 -8.84375 C -8.035156 -9.1875 -8.195312 -9.453125 -8.28125 -9.640625 C -8.375 -9.828125 -8.421875 -9.976562 -8.421875 -10.09375 C -8.421875 -10.28125 -8.359375 -10.4375 -8.234375 -10.5625 C -8.109375 -10.695312 -7.953125 -10.765625 -7.765625 -10.765625 C -7.585938 -10.765625 -7.375 -10.691406 -7.125 -10.546875 C -6.882812 -10.398438 -6.578125 -10.203125 -6.203125 -9.953125 C -5.804688 -9.679688 -5.367188 -9.390625 -4.890625 -9.078125 C -4.421875 -8.773438 -3.941406 -8.519531 -3.453125 -8.3125 C -2.960938 -8.101562 -2.5 -8 -2.0625 -8 C -1.664062 -8 -1.375 -8.117188 -1.1875 -8.359375 C -1.007812 -8.609375 -0.921875 -9.019531 -0.921875 -9.59375 C -0.921875 -10.03125 -1.007812 -10.609375 -1.1875 -11.328125 C -1.375 -12.054688 -1.628906 -12.867188 -1.953125 -13.765625 C -2.273438 -14.671875 -2.65625 -15.609375 -3.09375 -16.578125 C -3.539062 -17.546875 -4.03125 -18.5 -4.5625 -19.4375 C -5.101562 -20.382812 -5.671875 -21.257812 -6.265625 -22.0625 C -6.347656 -22.144531 -6.390625 -22.253906 -6.390625 -22.390625 Z M -6.140625 -6.515625 C -6.359375 -6.390625 -6.5 -6.257812 -6.5625 -6.125 C -6.625 -5.988281 -6.65625 -5.757812 -6.65625 -5.4375 C -6.65625 -5.050781 -6.554688 -4.585938 -6.359375 -4.046875 C -6.160156 -3.503906 -5.898438 -2.9375 -5.578125 -2.34375 C -5.265625 -1.757812 -4.914062 -1.179688 -4.53125 -0.609375 C -4.144531 -0.046875 -3.75 0.460938 -3.34375 0.921875 C -2.945312 1.390625 -2.570312 1.757812 -2.21875 2.03125 C -1.863281 2.3125 -1.566406 2.453125 -1.328125 2.453125 C -1.140625 2.453125 -1.046875 2.351562 -1.046875 2.15625 C -1.046875 1.65625 -1.269531 0.976562 -1.71875 0.125 C -2.175781 -0.726562 -2.789062 -1.71875 -3.5625 -2.84375 C -4.332031 -3.976562 -5.191406 -5.203125 -6.140625 -6.515625 Z M -6.140625 -6.515625 "/></g></g><g style="fill:#000000;fill-opacity:1;"><g transform="translate(76.133802, 128.079423)"><path style="stroke:none" d="M -6.390625 -20.328125 C -6.390625 -20.484375 -6.332031 -20.613281 -6.21875 -20.71875 C -6.101562 -20.832031 -5.96875 -20.890625 -5.8125 -20.890625 C -5.53125 -20.890625 -5.351562 -20.757812 -5.28125 -20.5 C -4.925781 -19.414062 -4.5625 -18.257812 -4.1875 -17.03125 C -3.820312 -15.800781 -3.457031 -14.566406 -3.09375 -13.328125 C -2.738281 -12.140625 -2.394531 -10.984375 -2.0625 -9.859375 C -1.738281 -8.742188 -1.421875 -7.722656 -1.109375 -6.796875 C -1.078125 -6.742188 -1.050781 -6.710938 -1.03125 -6.703125 C -0.519531 -6.328125 0.00390625 -5.867188 0.546875 -5.328125 C 1.085938 -4.785156 1.582031 -4.191406 2.03125 -3.546875 C 2.488281 -2.910156 2.859375 -2.257812 3.140625 -1.59375 C 3.421875 -0.925781 3.5625 -0.296875 3.5625 0.296875 C 3.5625 0.722656 3.460938 1.0625 3.265625 1.3125 C 3.078125 1.5625 2.820312 1.6875 2.5 1.6875 C 2.101562 1.6875 1.65625 1.363281 1.15625 0.71875 C 0.65625 0.0820312 0.132812 -0.804688 -0.40625 -1.953125 C -0.945312 -3.109375 -1.488281 -4.453125 -2.03125 -5.984375 L -2.09375 -6.078125 C -2.238281 -6.179688 -2.382812 -6.273438 -2.53125 -6.359375 C -2.675781 -6.441406 -2.773438 -6.46875 -2.828125 -6.4375 C -2.898438 -6.394531 -2.925781 -6.253906 -2.90625 -6.015625 C -2.882812 -5.785156 -2.84375 -5.503906 -2.78125 -5.171875 C -2.726562 -4.835938 -2.671875 -4.5 -2.609375 -4.15625 C -2.535156 -3.738281 -2.46875 -3.316406 -2.40625 -2.890625 C -2.351562 -2.472656 -2.328125 -2.085938 -2.328125 -1.734375 C -2.328125 -1.128906 -2.441406 -0.664062 -2.671875 -0.34375 C -2.898438 -0.0195312 -3.226562 0.140625 -3.65625 0.140625 C -4.09375 0.140625 -4.550781 -0.00390625 -5.03125 -0.296875 C -5.519531 -0.585938 -6.003906 -0.976562 -6.484375 -1.46875 C -6.960938 -1.96875 -7.394531 -2.515625 -7.78125 -3.109375 C -8.164062 -3.710938 -8.476562 -4.320312 -8.71875 -4.9375 C -8.957031 -5.550781 -9.078125 -6.128906 -9.078125 -6.671875 C -9.078125 -7.109375 -8.960938 -7.457031 -8.734375 -7.71875 C -8.503906 -7.976562 -8.203125 -8.109375 -7.828125 -8.109375 C -7.710938 -8.109375 -7.601562 -8.097656 -7.5 -8.078125 C -7.082031 -7.972656 -6.664062 -7.769531 -6.25 -7.46875 C -5.832031 -7.164062 -5.519531 -6.835938 -5.3125 -6.484375 C -5.257812 -6.367188 -5.234375 -6.265625 -5.234375 -6.171875 C -5.234375 -6.015625 -5.285156 -5.878906 -5.390625 -5.765625 C -5.503906 -5.660156 -5.640625 -5.609375 -5.796875 -5.609375 C -6.015625 -5.609375 -6.175781 -5.703125 -6.28125 -5.890625 C -6.394531 -6.066406 -6.539062 -6.238281 -6.71875 -6.40625 C -6.894531 -6.582031 -7.078125 -6.722656 -7.265625 -6.828125 C -7.460938 -6.929688 -7.628906 -6.984375 -7.765625 -6.984375 C -7.828125 -6.984375 -7.867188 -6.953125 -7.890625 -6.890625 C -7.921875 -6.828125 -7.9375 -6.753906 -7.9375 -6.671875 C -7.9375 -6.265625 -7.835938 -5.8125 -7.640625 -5.3125 C -7.453125 -4.8125 -7.195312 -4.304688 -6.875 -3.796875 C -6.5625 -3.296875 -6.21875 -2.832031 -5.84375 -2.40625 C -5.46875 -1.988281 -5.097656 -1.644531 -4.734375 -1.375 C -4.367188 -1.113281 -4.046875 -0.984375 -3.765625 -0.984375 C -3.648438 -0.984375 -3.566406 -1.039062 -3.515625 -1.15625 C -3.472656 -1.269531 -3.453125 -1.460938 -3.453125 -1.734375 C -3.453125 -2.046875 -3.476562 -2.390625 -3.53125 -2.765625 C -3.582031 -3.148438 -3.644531 -3.550781 -3.71875 -3.96875 C -3.789062 -4.34375 -3.851562 -4.710938 -3.90625 -5.078125 C -3.957031 -5.453125 -3.984375 -5.785156 -3.984375 -6.078125 C -3.984375 -6.566406 -3.882812 -6.9375 -3.6875 -7.1875 C -3.488281 -7.445312 -3.210938 -7.5625 -2.859375 -7.53125 C -2.816406 -7.519531 -2.765625 -7.507812 -2.703125 -7.5 C -2.640625 -7.5 -2.582031 -7.488281 -2.53125 -7.46875 C -2.789062 -8.289062 -3.0625 -9.175781 -3.34375 -10.125 C -3.625 -11.070312 -3.90625 -12.035156 -4.1875 -13.015625 C -4.550781 -14.253906 -4.910156 -15.484375 -5.265625 -16.703125 C -5.628906 -17.921875 -5.988281 -19.066406 -6.34375 -20.140625 C -6.375 -20.203125 -6.390625 -20.265625 -6.390625 -20.328125 Z M 2.4375 0.078125 C 2.4375 -0.304688 2.320312 -0.765625 2.09375 -1.296875 C 1.863281 -1.835938 1.535156 -2.40625 1.109375 -3 C 0.679688 -3.59375 0.191406 -4.164062 -0.359375 -4.71875 C -0.0859375 -4.039062 0.195312 -3.390625 0.5 -2.765625 C 0.800781 -2.140625 1.085938 -1.570312 1.359375 -1.0625 C 1.640625 -0.5625 1.878906 -0.171875 2.078125 0.109375 C 2.160156 0.242188 2.242188 0.3125 2.328125 0.3125 C 2.398438 0.3125 2.4375 0.234375 2.4375 0.078125 Z M 2.4375 0.078125 "/></g></g><g style="fill:#000000;fill-opacity:1;"><g transform="translate(76.133802, 109.343925)"><path style="stroke:none" d="M -6.390625 -22.390625 C -6.390625 -22.535156 -6.328125 -22.664062 -6.203125 -22.78125 C -6.085938 -22.894531 -5.957031 -22.953125 -5.8125 -22.953125 C -5.613281 -22.953125 -5.457031 -22.867188 -5.34375 -22.703125 C -4.78125 -21.898438 -4.222656 -21.015625 -3.671875 -20.046875 C -3.128906 -19.085938 -2.625 -18.101562 -2.15625 -17.09375 C -1.695312 -16.09375 -1.285156 -15.113281 -0.921875 -14.15625 C -0.566406 -13.195312 -0.289062 -12.320312 -0.09375 -11.53125 C 0.101562 -10.75 0.203125 -10.101562 0.203125 -9.59375 C 0.203125 -8.707031 0.0078125 -8.03125 -0.375 -7.5625 C -0.757812 -7.101562 -1.320312 -6.875 -2.0625 -6.875 C -2.65625 -6.875 -3.257812 -7.007812 -3.875 -7.28125 C -4.5 -7.5625 -5.09375 -7.878906 -5.65625 -8.234375 C -5.789062 -8.316406 -5.878906 -8.332031 -5.921875 -8.28125 C -5.960938 -8.238281 -5.9375 -8.15625 -5.84375 -8.03125 C -5.769531 -7.925781 -5.691406 -7.820312 -5.609375 -7.71875 C -5.535156 -7.613281 -5.457031 -7.503906 -5.375 -7.390625 C -4.945312 -6.796875 -4.484375 -6.148438 -3.984375 -5.453125 C -3.484375 -4.753906 -2.992188 -4.046875 -2.515625 -3.328125 C -2.046875 -2.609375 -1.613281 -1.90625 -1.21875 -1.21875 C -0.820312 -0.539062 -0.503906 0.0859375 -0.265625 0.671875 C -0.0351562 1.253906 0.078125 1.75 0.078125 2.15625 C 0.078125 2.582031 -0.0351562 2.925781 -0.265625 3.1875 C -0.492188 3.445312 -0.800781 3.578125 -1.1875 3.578125 C -1.613281 3.578125 -2.066406 3.414062 -2.546875 3.09375 C -3.023438 2.769531 -3.507812 2.335938 -4 1.796875 C -4.5 1.253906 -4.972656 0.65625 -5.421875 0 C -5.867188 -0.65625 -6.269531 -1.320312 -6.625 -2 C -6.988281 -2.675781 -7.269531 -3.316406 -7.46875 -3.921875 C -7.675781 -4.523438 -7.78125 -5.03125 -7.78125 -5.4375 C -7.78125 -5.9375 -7.703125 -6.34375 -7.546875 -6.65625 C -7.398438 -6.96875 -7.15625 -7.226562 -6.8125 -7.4375 C -7.238281 -8.03125 -7.566406 -8.5 -7.796875 -8.84375 C -8.035156 -9.1875 -8.195312 -9.453125 -8.28125 -9.640625 C -8.375 -9.828125 -8.421875 -9.976562 -8.421875 -10.09375 C -8.421875 -10.28125 -8.359375 -10.4375 -8.234375 -10.5625 C -8.109375 -10.695312 -7.953125 -10.765625 -7.765625 -10.765625 C -7.585938 -10.765625 -7.375 -10.691406 -7.125 -10.546875 C -6.882812 -10.398438 -6.578125 -10.203125 -6.203125 -9.953125 C -5.804688 -9.679688 -5.367188 -9.390625 -4.890625 -9.078125 C -4.421875 -8.773438 -3.941406 -8.519531 -3.453125 -8.3125 C -2.960938 -8.101562 -2.5 -8 -2.0625 -8 C -1.664062 -8 -1.375 -8.117188 -1.1875 -8.359375 C -1.007812 -8.609375 -0.921875 -9.019531 -0.921875 -9.59375 C -0.921875 -10.03125 -1.007812 -10.609375 -1.1875 -11.328125 C -1.375 -12.054688 -1.628906 -12.867188 -1.953125 -13.765625 C -2.273438 -14.671875 -2.65625 -15.609375 -3.09375 -16.578125 C -3.539062 -17.546875 -4.03125 -18.5 -4.5625 -19.4375 C -5.101562 -20.382812 -5.671875 -21.257812 -6.265625 -22.0625 C -6.347656 -22.144531 -6.390625 -22.253906 -6.390625 -22.390625 Z M -6.140625 -6.515625 C -6.359375 -6.390625 -6.5 -6.257812 -6.5625 -6.125 C -6.625 -5.988281 -6.65625 -5.757812 -6.65625 -5.4375 C -6.65625 -5.050781 -6.554688 -4.585938 -6.359375 -4.046875 C -6.160156 -3.503906 -5.898438 -2.9375 -5.578125 -2.34375 C -5.265625 -1.757812 -4.914062 -1.179688 -4.53125 -0.609375 C -4.144531 -0.046875 -3.75 0.460938 -3.34375 0.921875 C -2.945312 1.390625 -2.570312 1.757812 -2.21875 2.03125 C -1.863281 2.3125 -1.566406 2.453125 -1.328125 2.453125 C -1.140625 2.453125 -1.046875 2.351562 -1.046875 2.15625 C -1.046875 1.65625 -1.269531 0.976562 -1.71875 0.125 C -2.175781 -0.726562 -2.789062 -1.71875 -3.5625 -2.84375 C -4.332031 -3.976562 -5.191406 -5.203125 -6.140625 -6.515625 Z M -6.140625 -6.515625 "/></g></g><g style="fill:#000000;fill-opacity:1;"><g transform="translate(76.133802, 88.56512)"><path style="stroke:none" d="M -9 -5.15625 C -9 -5 -9.050781 -4.863281 -9.15625 -4.75 C -9.269531 -4.644531 -9.40625 -4.59375 -9.5625 -4.59375 C -9.6875 -4.59375 -9.800781 -4.632812 -9.90625 -4.71875 L -11.109375 -5.625 C -11.242188 -5.738281 -11.3125 -5.882812 -11.3125 -6.0625 C -11.3125 -6.21875 -11.253906 -6.351562 -11.140625 -6.46875 C -11.035156 -6.582031 -10.90625 -6.640625 -10.75 -6.640625 C -10.625 -6.640625 -10.503906 -6.597656 -10.390625 -6.515625 C -10.316406 -6.441406 -10.191406 -6.335938 -10.015625 -6.203125 C -9.847656 -6.078125 -9.691406 -5.957031 -9.546875 -5.84375 C -9.472656 -5.800781 -9.410156 -5.753906 -9.359375 -5.703125 C -9.304688 -5.660156 -9.257812 -5.628906 -9.21875 -5.609375 C -9.070312 -5.492188 -9 -5.34375 -9 -5.15625 Z M 0.5625 -0.59375 C 0.5625 0.0625 0.382812 0.578125 0.03125 0.953125 C -0.3125 1.328125 -0.800781 1.515625 -1.4375 1.515625 C -2.082031 1.515625 -2.976562 1.128906 -4.125 0.359375 C -5.269531 -0.398438 -6.554688 -1.472656 -7.984375 -2.859375 C -8.097656 -2.972656 -8.15625 -3.109375 -8.15625 -3.265625 C -8.15625 -3.410156 -8.097656 -3.539062 -7.984375 -3.65625 C -7.867188 -3.78125 -7.738281 -3.84375 -7.59375 -3.84375 C -7.457031 -3.84375 -7.332031 -3.789062 -7.21875 -3.6875 L -7.203125 -3.671875 C -6.378906 -2.878906 -5.582031 -2.175781 -4.8125 -1.5625 C -4.050781 -0.945312 -3.378906 -0.46875 -2.796875 -0.125 C -2.210938 0.207031 -1.757812 0.375 -1.4375 0.375 C -1.125 0.375 -0.898438 0.300781 -0.765625 0.15625 C -0.628906 0.0078125 -0.5625 -0.238281 -0.5625 -0.59375 C -0.5625 -0.945312 -0.644531 -1.425781 -0.8125 -2.03125 C -0.988281 -2.644531 -1.222656 -3.335938 -1.515625 -4.109375 C -1.816406 -4.890625 -2.15625 -5.707031 -2.53125 -6.5625 C -2.914062 -7.414062 -3.320312 -8.273438 -3.75 -9.140625 C -4.1875 -10.003906 -4.617188 -10.828125 -5.046875 -11.609375 C -5.484375 -12.398438 -5.898438 -13.109375 -6.296875 -13.734375 C -6.359375 -13.859375 -6.390625 -13.960938 -6.390625 -14.046875 C -6.390625 -14.191406 -6.328125 -14.320312 -6.203125 -14.4375 C -6.085938 -14.550781 -5.957031 -14.609375 -5.8125 -14.609375 C -5.59375 -14.609375 -5.429688 -14.519531 -5.328125 -14.34375 C -4.929688 -13.707031 -4.507812 -12.984375 -4.0625 -12.171875 C -3.613281 -11.359375 -3.171875 -10.503906 -2.734375 -9.609375 C -2.296875 -8.722656 -1.875 -7.832031 -1.46875 -6.9375 C -1.070312 -6.039062 -0.722656 -5.179688 -0.421875 -4.359375 C -0.117188 -3.546875 0.117188 -2.8125 0.296875 -2.15625 C 0.472656 -1.507812 0.5625 -0.988281 0.5625 -0.59375 Z M 0.5625 -0.59375 "/></g></g></g></svg>